<svg width="356" height="356" viewBox="0 0 356 356" fill="none" xmlns="http://www.w3.org/2000/svg">
<g clip-path="url(#clip0_171_28)">
<path d="M208.307 -2.8822C244.631 -4.85506 241.097 42.0703 235.85 65.7967C231.808 84.0437 226.952 101.04 220.794 118.661C252.591 133.559 265.044 156.172 271.113 189.628C273.031 200.157 276.072 202.657 276.093 214.954C279.819 214.59 286.826 213.152 288.998 216.865C286.826 220.824 279.785 220.605 275.73 220.947C275.291 224.866 274.14 228.805 273.14 232.627L274.14 232.874C278.559 233.956 285.888 235.641 288.388 239.779L288.094 240.416C283.607 242.628 275.647 239.58 270.969 238.231C264.647 254.363 253.892 264.042 239.754 273.043C249.18 280.551 256.331 289.559 255.427 302.109C268.866 314.789 278.127 328.845 283.285 346.964C284.1 349.827 284.189 352.342 282.607 354.869C278.449 355.952 273.969 356.006 269.695 355.999C203.964 355.986 138.226 356.02 72.4948 355.972C70.6659 355.965 69.7 355.876 68.0903 354.993C66.6381 352.54 67.0491 353.472 67.0765 350.314C73.0564 325.187 84.0984 309.432 101.586 291.32C98.1543 280.106 104.257 270.81 112.916 264.165C99.3667 248.773 91.8045 232.99 90.4825 212.145C89.0234 185.724 98.0515 159.79 115.608 139.987C101.052 111.375 67.419 44.9721 89.2152 14.3536C93.7018 8.08638 100.524 3.88993 108.141 2.71032C150.816 -4.11044 160.385 84.8691 164.831 113.868L171.263 113.171C170.119 82.3469 168.714 5.42575 208.307 -2.8822Z" fill="#141510"/>
<path d="M210.115 4.67834C253.577 5.7415 217.821 102.678 211.211 122.834C222.095 128.967 229.226 129.772 239.823 140.559C255.454 156.481 259.173 170.217 263.667 191.067C266.236 203.014 268.414 202.479 268.585 216.406C265.208 217.187 260.653 217.392 259.276 221.002L259.975 222.119C262.475 223.249 265.167 222.441 268.03 222.002C267.77 223.441 267.475 224.879 267.167 226.311C266.427 229.585 265.948 229.764 263.503 231.284C260.201 231.305 259.728 230.764 258.68 233.846C259.852 236.443 259.872 234.751 262.955 237.011C260.489 249.595 241.323 263.652 230.534 269.7C223.63 273.571 237.364 279.38 216.622 286.723C193.778 294.813 168.468 285.894 147.103 277.838C125.821 269.81 111.58 254.897 103.442 234.23C91.7017 202.226 101.223 164.984 125.334 141.261C109.114 110.09 80.1049 57.0736 94.5306 20.9757C98.6542 10.66 114.779 6.76151 122.957 13.4172C150.103 35.5016 151.405 91.9851 158.762 122.356C163.009 125.037 170.865 119.093 176.516 120.003C180.099 120.579 179.14 111.778 179.071 109.023C178.373 78.8244 178.544 43.8219 193.381 16.7176C197.039 10.3476 202.964 6.15525 210.115 4.67834Z" fill="#FFFFFF"/>
<path d="M223.643 213.7C227.863 213.385 235.507 211.994 237.816 216.234C237.083 220.057 234.343 222.091 232.644 225.468C227.445 235.833 237.733 235.915 238.994 240.347C237.686 242.402 238.528 241.594 236.275 242.765C233.576 242.765 231.144 240.648 228.116 239.374L226.863 240.114C222.739 243.108 215.985 247.821 212.238 242.121C212.992 237.607 221.814 238.936 224.664 235.141C230.562 227.284 218.602 222.427 218.821 217.111C220.451 214.919 221.034 214.878 223.643 213.7Z" fill="#141510"/>
<path d="M180.9 184.052C194.799 182.846 196.333 199.979 186.709 207.158C185.743 207.267 184.771 207.301 183.798 207.26C173.242 206.795 172.181 191.156 180.9 184.052Z" fill="#141510"/>
<path d="M240.953 179.764C250.912 182.552 251.344 195.451 243.48 201.075C233.534 199.095 232.082 185.121 240.953 179.764Z" fill="#141510"/>
<path d="M155.357 222.536C161.111 222.324 184.216 220.386 185.476 226.688L184.113 228.661C177.51 228.243 156.96 228.996 153.624 226.105C153.672 223.667 153.344 224.619 155.357 222.536Z" fill="#141510"/>
<path d="M182.264 236.148C182.825 236.1 184.257 236.196 184.887 236.223L186.099 237.675L185.819 239.299C182.394 242.765 166.838 247.211 160.728 249.786C158.275 249.848 157.899 249.286 157.118 247.272C158.727 242.265 176.893 237.696 182.264 236.148Z" fill="#141510"/>
<path d="M117.752 269.502C138.15 288.107 175.167 295.526 201.84 297.752C197.922 304.636 194.23 311.391 189.689 317.885C178.667 328.646 121.485 303.253 111.724 292.258C103.908 283.455 112.066 275.037 117.752 269.502Z" fill="#FFFFFF"/>
<path d="M237.268 280.578C239.795 282.907 241.241 285.099 243.33 287.702C253.886 300.848 242.097 314.096 228.404 316.035C226.349 316.33 225.301 314.953 223.815 313.713C218.999 307.979 214.102 302.307 209.136 296.704C220.541 293.299 230.034 290.443 237.268 280.578Z" fill="#FFFFFF"/>
<path d="M207.546 329.01C212.238 327.585 217.184 330.243 218.602 334.928C220.013 339.62 217.355 344.566 212.663 345.977C207.978 347.382 203.039 344.724 201.628 340.045C200.217 335.36 202.867 330.421 207.546 329.01Z" fill="#FFFFFF"/>
</g>
<defs>
<clipPath id="clip0_171_28">
<rect width="356" height="356" fill="#FFFFFF"/>
</clipPath>
</defs>
</svg>
