<svg width="356" height="356" viewBox="0 0 356 356" fill="none" xmlns="http://www.w3.org/2000/svg">
<g clip-path="url(#clip0_171_78)">
<path d="M190.427 95.4728C194.581 87.3904 199.189 79.5498 204.23 71.9891C216.585 53.5612 231.934 33.1071 239.834 68.115C243.862 85.968 246.375 99.2532 248.126 117.743C256.975 129.369 262.548 137.493 266.686 152.131C268.054 156.972 269.256 165.982 271.816 169.716C277.614 178.174 288.695 179.358 292.69 190.153C295.842 198.665 294.63 210.764 290.828 218.853C286.301 228.484 281.665 232.654 272.152 236.303C265.976 247.992 254.449 252.707 242.498 256.326L240.932 261.714C260.603 275.154 253.904 288.649 257.05 291.803C272.552 307.361 285.06 322.479 290.565 345.349C291.255 348.214 292.334 351.349 291.552 354.215C288.724 356.823 271.059 355.813 266.255 355.758L147.604 355.77C136.902 355.77 68.2284 356.83 62.1932 354.399C61.9073 353.811 61.4364 352.739 61.5173 352.066C64.5523 326.68 78.3914 302.592 95.7867 284.271C89.5005 265.425 101.804 263.178 102.057 256.105L99.9636 254.073C98.8254 250.57 101.031 247.656 102.772 244.159C73.1682 244.943 80.8019 235.948 91.3575 216.287C59.7753 214.248 78.6327 196.387 88.5337 180.711C88.0586 180.61 87.5847 180.504 87.112 180.392C84.4584 179.761 74.9535 176.681 77.1038 172.697C83.2608 161.291 96.7265 147.713 100.657 135.096C103.581 125.707 103.698 113.383 106.972 102.971C111.69 87.9708 118.599 57.3709 132.688 48.937C133.646 48.8844 136.127 48.7693 136.887 49.125C150.487 55.493 165.083 85.0912 171.169 97.2087C177.699 95.6473 183.793 95.5334 190.427 95.4728Z" fill="#141510"/>
<path d="M134.535 56.0569C143.643 59.3749 161.723 93.8875 165.944 103.651C167.018 106.137 167.824 106.472 169.991 107.137C172.277 106.404 172.15 105.881 173.862 103.833C180.137 101.419 194.93 102.715 201.893 103.015C203.57 103.087 204.345 102.428 205.261 101.358C205.256 97.0212 200.996 96.8161 197.812 96.3955C206.663 82.3645 213.941 66.1721 227.824 55.5768C234.271 67.6092 241.46 106.063 239.847 119.526C246.394 127.497 252.666 134.943 256.622 144.651C265.247 165.82 258.099 170.478 278.094 184.148C271.567 183.444 262.561 183.492 257.994 188.659C249.031 198.8 262.537 212.987 273.705 211.579C280.327 210.74 283.348 207.494 287.135 202.847C286.095 234.497 255.862 234.466 231.743 231.76C225.313 231.038 218.406 225.784 211.934 227.4L211.377 228.337C216.618 240.865 250.773 239.096 261.984 237.914C257.955 250.301 221.93 250.356 217.57 253.95C217.664 259.204 231.051 257.55 234.841 257.373C234.118 261.61 233.92 264.757 233.652 269.043C225.358 278.001 213.975 285.386 203.872 292.213C177.365 285.025 153.352 277.818 128.869 264.69C125.578 262.92 119.067 259.534 116.991 256.773L117.544 256.418C119.51 255.113 122.166 253.405 122.662 251.029L121.993 250.135C120.219 249.523 110.058 250.503 106.765 250.588C108.472 247.08 113.347 240.528 111.301 237.05C108.096 236.058 101.964 237.822 98.2517 237.669C95.0048 237.54 92.219 237.038 89.0186 236.505C91.2993 231.374 103.623 211.689 99.5999 208.278C95.8044 209.362 95.2509 209.864 92.3873 212.534C88.6262 211.713 79.0013 212.344 81.2342 205.988C83.4586 199.657 100.036 181.157 99.1052 175.47C95.2191 173.185 90.1048 179.333 84.6984 177.584L84.1639 176.4C84.6997 171.199 89.4123 167.761 92.6812 163.674C98.1727 156.805 103.207 149.723 107.247 141.866C110.563 135.417 109.644 126.873 111.102 119.873C114.015 102.206 122.433 70.2623 134.02 56.6551L134.535 56.0569Z" fill="#FFFFFF"/>
<path d="M183.965 161.62C197.639 161.139 198.782 177.967 188.585 184.011C176.651 184.883 174.676 168.861 183.965 161.62Z" fill="#141510"/>
<path d="M141.784 88.9122C146.645 90.3236 151.309 104.658 153.193 109.552C145.567 112.957 142.755 113.973 136.169 119.369C134.931 120.311 133.868 120.646 132.527 119.905C130.149 114.131 140.747 107.884 145.007 106.004C143.671 101.872 141.343 97.6553 140.412 93.3294C139.889 90.8967 140.483 90.7589 141.784 88.9122Z" fill="#141510"/>
<path d="M223.114 77.3849C224.61 78.0645 224.569 78.2482 225.452 79.602C225.888 83.2422 221.099 95.5948 219.628 100.287C222.209 101.54 224.837 102.762 226.121 105.317C225.825 107.422 226.11 106.65 224.255 108.377C220.504 106.731 215.367 106.076 213.474 102.935C213.26 97.166 219.705 82.2117 223.114 77.3849Z" fill="#141510"/>
<path d="M243.869 155.973C246.122 156.426 247.314 156.637 248.818 158.445C250.815 160.816 251.714 163.922 251.291 166.993C250.835 170.449 249.895 171.623 247.241 173.622C238.792 170.594 235.6 161.368 243.869 155.973Z" fill="#141510"/>
<path d="M109.597 259.975C126.125 276.961 175.788 291.876 199.056 297.454L184.786 315.848C182.787 318.536 180.889 320.661 178.665 323.171C153.027 314.44 127.068 299.965 105.347 283.678C96.015 276.685 103.524 266.282 109.597 259.975Z" fill="#FFFFFF"/>
<path d="M240.756 269.705C245.424 273.195 248.777 282.833 250.221 288.239C245.924 297.748 236.627 310.466 228.902 317.501C227.043 315.836 225.064 313.84 223.253 312.076C218.255 306.847 213.155 301.722 207.955 296.695C218.942 290.443 234.171 280.494 240.756 269.705Z" fill="#FFFFFF"/>
</g>
<defs>
<clipPath id="clip0_171_78">
<rect width="356" height="356" fill="#FFFFFF"/>
</clipPath>
</defs>
</svg>
